<?xml version="1.0" standalone="no"?>
<!DOCTYPE svg PUBLIC "-//W3C//DTD SVG 20010904//EN"
 "http://www.w3.org/TR/2001/REC-SVG-20010904/DTD/svg10.dtd">
<svg version="1.0" xmlns="http://www.w3.org/2000/svg"
 width="474.000000pt" height="474.000000pt" viewBox="0 0 474.000000 474.000000"
 preserveAspectRatio="xMidYMid meet">

<g transform="translate(0.000000,474.000000) scale(0.100000,-0.100000)"
fill="#000000" stroke="none">
<path d="M1275 4124 c-147 -32 -294 -110 -411 -218 -218 -200 -316 -470 -285
-782 29 -301 146 -603 363 -944 223 -349 539 -718 1087 -1273 l315 -318 288
288 288 288 27 -18 c50 -33 170 -86 230 -103 91 -25 275 -30 369 -9 183 41
340 138 451 279 243 311 224 742 -44 1027 l-66 69 50 108 c262 557 241 1022
-61 1339 -125 132 -278 222 -447 263 -102 24 -300 27 -411 6 -256 -49 -455
-218 -632 -538 -21 -38 -39 -68 -41 -68 -2 0 -24 37 -48 83 -152 277 -347 452
-572 513 -87 24 -357 28 -450 8z m425 -50 c237 -61 412 -220 571 -519 72 -137
77 -139 115 -62 79 156 176 298 270 391 98 98 202 156 344 192 101 25 326 26
420 1 130 -34 386 -181 375 -215 -3 -7 -1 -10 4 -7 11 6 61 -37 61 -53 0 -6
-6 -13 -12 -16 -7 -3 -4 -4 7 -1 25 6 61 -37 112 -133 80 -149 109 -288 100
-470 -6 -129 -34 -295 -48 -286 -5 3 -6 -2 -3 -10 9 -23 -58 -214 -130 -369
l-35 -77 -47 30 c-253 160 -592 159 -843 -4 -172 -111 -277 -253 -337 -453
-22 -74 -26 -107 -26 -208 1 -223 64 -379 231 -565 22 -25 40 -48 38 -52 -5
-18 -171 -177 -178 -172 -5 3 -6 -3 -2 -12 5 -13 3 -16 -10 -11 -9 3 -16 3
-16 -1 4 -23 -3 -34 -17 -28 -8 3 -13 2 -10 -3 3 -5 -38 -55 -92 -111 -93 -97
-100 -102 -123 -91 -23 12 -23 12 -4 -4 20 -16 19 -17 -23 -56 l-42 -40 -28
19 c-34 25 -392 389 -607 618 -560 595 -874 1052 -1014 1470 -64 193 -76 265
-76 464 0 156 3 183 23 250 50 156 118 268 232 380 116 113 270 193 435 226
89 17 296 11 385 -12z m1860 -1550 c145 -33 314 -144 410 -271 103 -136 150
-277 150 -451 0 -132 -18 -209 -77 -330 -84 -172 -241 -308 -431 -375 -80 -29
-98 -31 -222 -31 -154 -1 -219 13 -338 72 -183 90 -333 272 -387 467 -39 145
-28 334 28 475 75 184 232 340 417 413 146 57 290 67 450 31z"/>
<path d="M3738 3878 c22 -24 52 -56 67 -73 23 -27 25 -27 13 -5 -7 14 -11 29
-10 33 1 5 -2 6 -6 3 -9 -6 -50 32 -44 41 4 5 -43 43 -54 43 -4 0 11 -19 34
-42z"/>
<path d="M3879 3685 c17 -34 31 -51 31 -39 0 7 -9 22 -21 35 -16 19 -18 20
-10 4z"/>
<path d="M3906 3687 c3 -10 9 -15 12 -12 3 3 0 11 -7 18 -10 9 -11 8 -5 -6z"/>
<path d="M3940 3641 c0 -6 5 -13 10 -16 6 -3 10 1 10 9 0 9 -4 16 -10 16 -5 0
-10 -4 -10 -9z"/>
<path d="M3915 3629 c-4 -6 -5 -12 -2 -15 2 -3 7 2 10 11 7 17 1 20 -8 4z"/>
<path d="M3966 3495 c-4 -14 -3 -32 2 -40 5 -10 8 -1 9 25 2 46 -2 51 -11 15z"/>
<path d="M4011 3504 c0 -11 3 -14 6 -6 3 7 2 16 -1 19 -3 4 -6 -2 -5 -13z"/>
<path d="M3994 3458 c-4 -5 -3 -12 0 -15 3 -4 6 -1 6 6 0 7 4 10 9 6 5 -3 12
-2 15 3 3 5 -2 9 -10 9 -8 0 -17 -4 -20 -9z"/>
<path d="M3982 3390 c0 -19 2 -27 5 -17 2 9 2 25 0 35 -3 9 -5 1 -5 -18z"/>
<path d="M3993 3270 c0 -41 2 -58 4 -37 2 20 2 54 0 75 -2 20 -4 3 -4 -38z"/>
<path d="M4053 3250 c0 -30 2 -43 4 -27 2 15 2 39 0 55 -2 15 -4 2 -4 -28z"/>
<path d="M3982 3040 c0 -14 2 -19 5 -12 2 6 2 18 0 25 -3 6 -5 1 -5 -13z"/>
<path d="M3961 2949 c-7 -34 -10 -63 -8 -65 2 -3 10 23 17 56 7 33 11 63 8 65
-2 2 -10 -23 -17 -56z"/>
<path d="M4007 2986 c-4 -10 -3 -15 3 -11 6 3 10 -2 11 -12 0 -10 3 -13 5 -6
3 7 1 20 -4 29 -8 15 -9 15 -15 0z"/>
<path d="M3981 2913 c-1 -18 19 -67 25 -61 3 3 -2 21 -10 39 -8 19 -15 29 -15
22z"/>
<path d="M3941 2854 c0 -11 3 -14 6 -6 3 7 2 16 -1 19 -3 4 -6 -2 -5 -13z"/>
<path d="M3921 2810 c-1 -8 -4 -26 -7 -40 -5 -22 -4 -23 6 -7 6 10 9 28 7 40
-2 12 -5 15 -6 7z"/>
<path d="M3940 2751 c0 -6 4 -13 10 -16 6 -3 7 1 4 9 -7 18 -14 21 -14 7z"/>
<path d="M3930 2661 c0 -7 -4 -9 -10 -6 -5 3 -10 2 -10 -4 0 -5 4 -12 9 -15
10 -6 25 24 16 32 -3 3 -5 0 -5 -7z"/>
<path d="M3841 2577 c-18 -43 -21 -60 -12 -70 6 -8 7 -18 3 -22 -4 -5 -1 -5 5
-1 10 5 10 11 1 25 -8 13 -8 23 1 37 11 18 12 17 7 -5 -6 -31 10 -14 19 19 5
19 4 21 -4 10 -9 -13 -11 -13 -11 1 0 8 5 20 11 26 6 6 9 17 7 24 -2 7 -15
-13 -27 -44z"/>
<path d="M3882 2585 c1 -11 -3 -29 -7 -40 -10 -24 -5 -19 19 19 10 16 13 26 8
22 -6 -3 -12 0 -15 6 -3 7 -5 4 -5 -7z"/>
<path d="M2830 1201 c0 -5 5 -13 10 -16 6 -3 10 -2 10 4 0 5 -4 13 -10 16 -5
3 -10 2 -10 -4z"/>
<path d="M2800 1180 c0 -5 -9 -18 -20 -28 -18 -17 -19 -20 -5 -32 15 -12 20
-4 16 23 0 4 4 7 10 7 5 0 8 4 4 9 -3 5 3 11 12 13 17 3 17 4 1 10 -10 4 -18
3 -18 -2z"/>
<path d="M2703 1076 c-24 -23 -43 -45 -43 -51 0 -5 5 -4 11 2 6 6 17 10 23 9
6 -2 7 -1 3 2 -5 2 8 22 29 43 51 52 30 48 -23 -5z"/>
<path d="M2604 972 c-38 -34 -117 -124 -84 -96 14 12 34 24 44 28 10 3 16 9
12 13 -9 10 55 73 67 66 6 -3 7 -1 3 5 -9 15 -6 16 -42 -16z"/>
<path d="M2441 806 c-15 -16 -19 -26 -11 -31 6 -4 14 -4 17 -1 4 3 0 6 -7 6
-9 0 -5 9 10 25 13 14 21 25 18 25 -2 0 -15 -11 -27 -24z"/>
<path d="M2362 727 c-23 -24 -29 -47 -13 -47 15 0 24 20 9 20 -7 0 0 12 15 25
15 14 24 25 19 25 -5 0 -18 -10 -30 -23z"/>
<path d="M3305 2441 c-123 -15 -260 -78 -352 -161 -274 -246 -284 -669 -23
-930 266 -267 697 -249 943 38 225 265 195 665 -67 899 -130 115 -325 175
-501 154z m207 -52 c75 -15 183 -69 253 -126 74 -61 157 -181 186 -270 29 -94
36 -237 15 -327 -47 -198 -203 -366 -408 -437 -97 -34 -256 -32 -361 4 -188
65 -319 196 -383 382 -37 107 -40 254 -7 360 50 158 191 320 329 376 116 47
262 62 376 38z"/>
<path d="M3267 2204 c-4 -4 -7 -70 -7 -146 l0 -138 -140 0 -141 0 3 -117 3
-118 137 -3 137 -3 3 -137 3 -137 118 -3 117 -3 0 141 0 140 134 0 c102 0 136
3 145 14 8 9 11 50 9 117 l-3 104 -142 3 -142 3 -3 142 -3 142 -111 3 c-60 1
-113 -1 -117 -4z m193 -179 l5 -140 138 -3 137 -3 0 -74 0 -75 -124 0 c-68 0
-131 -3 -140 -6 -14 -5 -16 -28 -16 -145 l0 -139 -75 0 -75 0 0 133 c0 90 -4
137 -12 145 -8 8 -55 12 -145 12 l-133 0 0 75 0 75 139 0 c122 0 140 2 145 17
4 9 6 71 6 138 -1 66 -1 124 -1 128 1 4 34 7 74 5 l72 -3 5 -140z"/>
</g>
</svg>
